<?xml version="1.0" encoding="UTF-8" standalone="no"?>
<svg
   xmlns:dc="http://purl.org/dc/elements/1.1/"
   xmlns:cc="http://creativecommons.org/ns#"
   xmlns:rdf="http://www.w3.org/1999/02/22-rdf-syntax-ns#"
   xmlns:svg="http://www.w3.org/2000/svg"
   xmlns="http://www.w3.org/2000/svg"
   xmlns:sodipodi="http://sodipodi.sourceforge.net/DTD/sodipodi-0.dtd"
   xmlns:inkscape="http://www.inkscape.org/namespaces/inkscape"
   width="400"
   height="280"
   viewBox="0 0 105.8333 74.083359"
   version="1.1"
   id="svg8"
   sodipodi:docname="mjf-logo-mobile.svg"
   inkscape:version="1.0.1 (3bc2e813f5, 2020-09-07)">
  <defs
     id="defs2">
    <rect
       x="121.70833"
       y="10.583333"
       width="95.25"
       height="58.208332"
       id="rect31" />
    <rect
       x="114.52679"
       y="2.6458333"
       width="123.59821"
       height="49.892857"
       id="rect132" />
    <rect
       x="3.7797618"
       y="7.5595236"
       width="211.2887"
       height="58.208332"
       id="rect126" />
    <rect
       x="38.931549"
       y="-20.410713"
       width="153.45833"
       height="105.07738"
       id="rect120" />
    <rect
       x="6.0476189"
       y="5.2916665"
       width="106.58929"
       height="51.026787"
       id="rect114" />
  </defs>
  <sodipodi:namedview
     id="base"
     pagecolor="#ffffff"
     bordercolor="#666666"
     borderopacity="1.0"
     inkscape:pageopacity="0.0"
     inkscape:pageshadow="2"
     inkscape:zoom="0.91140073"
     inkscape:cx="414.5032"
     inkscape:cy="218.51682"
     inkscape:document-units="mm"
     inkscape:current-layer="layer1"
     inkscape:document-rotation="0"
     showgrid="true"
     units="px"
     inkscape:window-width="1366"
     inkscape:window-height="715"
     inkscape:window-x="-8"
     inkscape:window-y="-8"
     inkscape:window-maximized="1">
    <inkscape:grid
       type="xygrid"
       id="grid2923" />
  </sodipodi:namedview>
  <metadata
     id="metadata5">
    <rdf:RDF>
      <cc:Work
         rdf:about="">
        <dc:format>image/svg+xml</dc:format>
        <dc:type
           rdf:resource="http://purl.org/dc/dcmitype/StillImage" />
        <dc:title></dc:title>
      </cc:Work>
    </rdf:RDF>
  </metadata>
  <g
     inkscape:label="Layer 1"
     inkscape:groupmode="layer"
     id="layer1">
    <path
       style="fill:#f9f9f9;stroke-width:0.264583"
       d="M -213.42425,-24.568452 V -57.64137 h 47.49271 47.49271 v 33.072918 33.0729183 h -47.49271 -47.49271 z"
       id="path80" />
    <text
       xml:space="preserve"
       id="text112"
       style="font-style:normal;font-weight:normal;font-size:10.5833px;line-height:1.25;font-family:sans-serif;white-space:pre;shape-inside:url(#rect114);fill:#000000;fill-opacity:1;stroke:none;" />
    <text
       xml:space="preserve"
       id="text118"
       style="font-style:normal;font-weight:normal;font-size:10.5833px;line-height:1.25;font-family:sans-serif;white-space:pre;shape-inside:url(#rect120);fill:#000000;fill-opacity:1;stroke:none;" />
    <path
       style="fill:#fefefe;stroke-width:0.0795327"
       d="m 26.075632,41.397799 c -3.263141,-1.016659 -4.937378,-2.944039 -5.524109,-6.35937 -0.138306,-0.805264 -0.137515,-3.262113 8.93e-4,-4.311379 0.597216,-4.509403 2.036903,-9.095989 5.628786,-17.932263 1.325107,-3.259755 1.497133,-3.6354331 1.889246,-4.1241616 0.423097,-0.5273218 0.766934,-0.8206739 1.211912,-1.0340282 0.257244,-0.1232728 0.625486,-0.7236155 0.885057,-1.4424108 0.09803,-0.2727984 0.206516,-0.5320595 0.239976,-0.5761326 0.203158,-0.2673046 3.046245,-1.5703428 4.619885,-2.1173483 2.079829,-0.7229572 4.859072,-1.0895971 5.956005,-0.7857054 0.213052,0.059003 0.868402,0.3526758 1.456538,0.6526188 1.010392,0.5152795 1.109734,0.5492707 1.80189,0.6163032 0.904314,0.087579 14.740272,0.089505 15.645604,0.00211 0.537826,-0.05188 0.776411,-0.1225745 1.326247,-0.392909 0.368782,-0.1812984 0.965954,-0.4686128 1.327196,-0.6384648 l 0.656693,-0.3088232 1.084012,0.00359 c 1.672842,0.00563 3.083062,0.2662067 5.021359,0.9281858 0.982193,0.3354676 3.89384,1.6449129 4.221012,1.8983323 0.161454,0.1250399 0.304644,0.3607552 0.426024,0.7012669 0.247338,0.6935601 0.65717,1.3650319 0.893847,1.4646435 0.388908,0.1636555 0.786264,0.5023108 1.20697,1.0287193 0.385571,0.482406 0.568655,0.8776888 1.780125,3.8431811 3.596525,8.804217 5.214942,13.941515 5.73756,18.213245 0.132922,1.084946 0.136075,3.414809 0.0043,4.196911 -0.26914,1.616431 -0.691158,2.72004 -1.431128,3.743066 -0.890066,1.23047 -2.122389,2.075002 -3.88773,2.664371 -0.928139,0.309829 -1.191167,0.303198 -1.750799,-0.04416 -0.948162,-0.58848 -1.587398,-1.125473 -4.383139,-3.682067 -1.572883,-1.43831 -3.176874,-2.870758 -3.564317,-3.183219 -2.35332,-1.8975 -2.989887,-2.291903 -4.214759,-2.611269 -0.634223,-0.1654 -0.637482,-0.165445 -11.741813,-0.189973 -11.223572,-0.02481 -12.15204,-0.0071 -13.082341,0.25074 -1.378524,0.381917 -3.428531,1.939147 -7.433224,5.646517 -1.299378,1.202845 -2.604851,2.385135 -2.9013,2.627321 -0.540279,0.441611 -1.872688,1.374994 -1.975784,1.384122 -0.03075,0.0025 -0.166904,0.01494 -0.30366,0.02699 -0.13687,0.01222 -0.509762,-0.0592 -0.828937,-0.158652 z M 61.328855,27.472206 c 0.725821,-0.126942 1.649485,-0.603623 2.268603,-1.170781 0.938543,-0.859744 1.402563,-1.882323 1.402563,-3.090662 0,-1.203308 -0.464641,-2.231492 -1.39276,-3.081653 -0.929507,-0.851503 -2.037241,-1.274271 -3.338939,-1.274271 -1.30172,0 -2.409475,0.422768 -3.339018,1.274271 -0.928062,0.850161 -1.392759,1.878345 -1.392759,3.081653 0,1.20331 0.464697,2.231494 1.392759,3.081652 1.196952,1.096543 2.649157,1.485941 4.399551,1.179791 z m -16.268294,-0.252758 0.287356,-0.264529 v -1.062686 c 0,-0.898636 0.02024,-1.069834 0.131182,-1.109001 0.07237,-0.0255 0.634283,-0.04632 1.249251,-0.04632 1.156922,0 1.355037,-0.0494 1.355037,-0.337932 0,-0.06595 0.03685,-0.119923 0.08346,-0.119923 0.04999,0 0.08323,-0.318794 0.08323,-0.803773 v -0.803775 l -0.287436,-0.264532 -0.287333,-0.264533 h -1.204709 -1.204632 v -1.150066 c 0,-1.191987 -0.04705,-1.368083 -0.36712,-1.368083 -0.07191,0 -0.130403,-0.03434 -0.130403,-0.07631 0,-0.04604 -0.346588,-0.0763 -0.874055,-0.0763 -0.811954,0 -0.88828,0.01291 -1.072916,0.182976 -0.109117,0.100629 -0.235704,0.195068 -0.280708,0.209859 -0.0476,0.01586 -0.09081,0.523957 -0.101769,1.228723 -0.01265,0.661012 -0.05067,1.201841 -0.08912,1.201841 -0.03707,0 -0.06819,-0.03434 -0.06819,-0.07631 0,-0.04738 -0.457869,-0.0763 -1.207831,-0.0763 -1.251196,0 -1.444731,0.04525 -1.444731,0.33793 0,0.06595 -0.03686,0.119922 -0.08334,0.119922 -0.04999,0 -0.08346,0.318797 -0.08346,0.803773 v 0.803772 l 0.287301,0.264533 0.287412,0.264533 h 1.156471 c 0.636013,0 1.206101,0.01743 1.266777,0.03885 0.08707,0.03054 0.104596,0.284507 0.08594,1.184377 -0.02589,1.196137 0.02024,1.371214 0.350454,1.371214 0.07192,0 0.130392,0.03434 0.130392,0.07632 0,0.04605 0.346281,0.0763 0.873128,0.0763 h 0.873082 z m 24.150023,-7.247025 c 1.211132,-0.576538 1.468149,-2.122608 0.500941,-3.013007 -1.280428,-1.178727 -3.486892,-0.337427 -3.486892,1.329514 0,1.168627 1.154004,2.063779 2.393837,1.856837 0.193183,-0.03222 0.459562,-0.11025 0.592114,-0.173348 z M 37.041667,18.696848 c 0.725946,-0.126966 1.649507,-0.603631 2.268703,-1.170788 0.9385,-0.859741 1.402587,-1.88232 1.402587,-3.090664 0,-1.203306 -0.464733,-2.231492 -1.392771,-3.081651 -0.929521,-0.851504 -2.037342,-1.274271 -3.339006,-1.274271 -1.301664,0 -2.409509,0.422767 -3.339052,1.274271 -0.928029,0.850159 -1.39267,1.878345 -1.39267,3.081651 0,1.203313 0.464641,2.231496 1.39267,3.081657 1.197053,1.096539 2.649156,1.48594 4.399539,1.179795 z m 27.858575,-2.616107 c 1.211074,-0.576541 1.46817,-2.122611 0.500971,-3.013008 -1.280482,-1.178725 -3.486958,-0.337426 -3.486958,1.32951 0,1.168629 1.154119,2.063781 2.393859,1.856842 0.193219,-0.03222 0.459621,-0.110252 0.592128,-0.173349 z m 8.620685,-0.07634 c 1.211132,-0.576539 1.468105,-2.122608 0.500928,-3.013006 -1.280416,-1.178726 -3.486892,-0.337426 -3.486892,1.329511 0,1.16863 1.154019,2.06378 2.393827,1.856839 0.193219,-0.03223 0.459564,-0.110252 0.592137,-0.17335 z m -4.227411,-3.815375 c 1.211063,-0.576539 1.468127,-2.122607 0.500917,-3.0130048 -1.280484,-1.1787272 -3.486959,-0.337425 -3.486959,1.3295098 0,1.168629 1.154106,2.06378 2.393916,1.856841 0.193173,-0.03225 0.459541,-0.110251 0.592126,-0.173348 z"
       id="path110" />
    <text
       xml:space="preserve"
       id="text124"
       style="font-style:normal;font-weight:normal;font-size:36.286px;line-height:1.25;font-family:sans-serif;white-space:pre;shape-inside:url(#rect126);fill:#000000;fill-opacity:1;stroke:#ffffff;stroke-width:0.596295;stroke-miterlimit:4;stroke-dasharray:none;stroke-opacity:1;"
       transform="matrix(0.8605975,0,0,1.1753382,19.842811,-20.359783)"><tspan
         x="3.7792969"
         y="48.380343"><tspan
           style="font-style:normal;font-variant:normal;font-weight:normal;font-stretch:normal;font-size:36.286px;font-family:Stencil;-inkscape-font-specification:Stencil;fill:#800000;stroke:#ffffff;stroke-width:0.596295;stroke-miterlimit:4;stroke-dasharray:none;stroke-opacity:1">MJf</tspan></tspan></text>
    <text
       xml:space="preserve"
       id="text29"
       style="font-style:normal;font-variant:normal;font-weight:normal;font-stretch:normal;font-size:10.5833px;line-height:1.25;font-family:'Bauhaus 93';-inkscape-font-specification:'Bauhaus 93, ';white-space:pre;shape-inside:url(#rect31);fill:#008000;fill-opacity:1;stroke:#ffffff;stroke-width:0.203998;stroke-miterlimit:4;stroke-dasharray:none;stroke-opacity:1;"
       transform="matrix(2.9490855,0,0,3.2806127,-351.37154,1.5616565)"><tspan
         x="121.70898"
         y="20.312356"><tspan
           style="font-style:normal;font-variant:normal;font-weight:normal;font-stretch:normal;font-family:'Bauhaus 93';-inkscape-font-specification:'Bauhaus 93, ';fill:#008000;stroke:#ffffff;stroke-width:0.203998;stroke-miterlimit:4;stroke-dasharray:none;stroke-opacity:1">GAMES</tspan></tspan></text>
  </g>
</svg>
